<?xml version="1.0" encoding="UTF-8"?>
<svg id="Layer_2" data-name="Layer 2" xmlns="http://www.w3.org/2000/svg" viewBox="0 0 231.98 232.55">
  <g id="Layer_1-2" data-name="Layer 1">
    <path d="M118.86,44.47c4.05-21.34,25.6-35.28,46.64-34.42,22.08.91,42.01,16.22,50.75,36.14,9.88,22.54,6.45,49.23-4.76,70.59-5.35,10.2-12.37,19.36-20.78,27.23-9.67,9.05-21.32,15.01-32.2,22.38-21.55,14.59-40.89,34.88-49.29,59.94h9.64c-7.19-22.3-22.9-40.95-41.14-55.22-9.87-7.72-21.16-13.44-30.85-21.38-8.76-7.18-16.28-15.78-22.19-25.44-12.3-20.12-17.87-45.12-11.98-68.27,5.46-21.45,21.63-39.82,43.65-44.87,23.18-5.31,48.5,9.41,52.87,33.3,1.15,6.32,10.79,3.64,9.64-2.66C114.74,19.24,94.03,2.62,71.7.28,48.52-2.14,26.05,11.3,13.31,30.06c-29.91,44.06-5.54,105.12,34.78,133,13.04,9.01,26.12,16.82,37.28,28.27,10.46,10.73,19.22,23.31,23.85,37.66,1.54,4.78,8.07,4.71,9.64,0,8.73-26.05,30.6-45.5,53.36-59.48,11.78-7.24,22.96-14.89,32.24-25.26,8.33-9.31,15.07-19.91,19.86-31.44,10.03-24.16,10.94-52.76-1.66-76.19C211.48,15.84,189.23.99,165.5.05c-25.16-1-51.44,16.23-56.28,41.76-1.19,6.29,8.44,8.98,9.64,2.66h0Z"/>
  </g>
</svg>